REM DIRINDEX 1\8,1\2\11,1\3\12,1\3\14,1\5\15,1\5\16,1\6\17,1\6\18,1\4\19,1\4\20,1\4\21,1\4\22,1\7\23,1\7\24,1\7\25,1\2\9\26,1\2\9\27,1\2\10\28,1\2\10\29,1\2\10\30,1\2\10\31,1\2\10\32,1\3\13\33,1\3\13\34,1\3\13\35
REM DIRNAME folder01,folder02,folder03,folder04,folder05,folder06,folder07,folder08,folder09,folder10,folder11,folder12,folder13,folder14,folder15,folder16,folder17,folder18,folder19,folder20,folder21,folder22,folder23,folder24,folder25,folder26,folder27,folder28,folder29,folder30,folder31,folder32,folder33,folder34,folder35
TITLE ""
FILE "147 147_—á•¶UNIT5_SET1.mp3" MP3
  TRACK 01 AUDIO
    TITLE "22:cjc123_3739"
    INDEX 01 00:00:00
  TRACK 02 AUDIO
    TITLE "0:"
    INDEX 01 00:02:51
  TRACK 03 AUDIO
    TITLE "19:cjc123_3740"
    INDEX 01 00:03:21
  TRACK 04 AUDIO
    TITLE "0:"
    INDEX 01 00:08:26
  TRACK 05 AUDIO
    TITLE "20:cjc123_3741"
    INDEX 01 00:08:68
  TRACK 06 AUDIO
    TITLE "0:"
    INDEX 01 00:14:23
  TRACK 07 AUDIO
    TITLE "21:cjc123_3742"
    INDEX 01 00:14:51
  TRACK 08 AUDIO
    TITLE "0:"
    INDEX 01 00:19:56
  TRACK 09 AUDIO
    TITLE "19:cjc123_3743"
    INDEX 01 00:20:34
  TRACK 10 AUDIO
    TITLE "0:"
    INDEX 01 00:25:66
  TRACK 11 AUDIO
    TITLE "20:cjc123_3744"
    INDEX 01 00:26:18
  TRACK 12 AUDIO
    TITLE "0:"
    INDEX 01 00:31:47
  TRACK 13 AUDIO
    TITLE "21:cjc123_3745"
    INDEX 01 00:32:09
  TRACK 14 AUDIO
    TITLE "0:"
    INDEX 01 00:37:42
  TRACK 15 AUDIO
    TITLE "19:cjc123_3746"
    INDEX 01 00:38:16
  TRACK 16 AUDIO
    TITLE "0:"
    INDEX 01 00:42:57
  TRACK 17 AUDIO
    TITLE "20:cjc123_3747"
    INDEX 01 00:43:15
  TRACK 18 AUDIO
    TITLE "0:"
    INDEX 01 00:47:62
  TRACK 19 AUDIO
    TITLE "21:cjc123_3748"
    INDEX 01 00:48:22
  TRACK 20 AUDIO
    TITLE "0:"
    INDEX 01 00:52:63
  TRACK 21 AUDIO
    TITLE "19:cjc123_3749"
    INDEX 01 00:53:39
  TRACK 22 AUDIO
    TITLE "0:"
    INDEX 01 00:59:12
  TRACK 23 AUDIO
    TITLE "20:cjc123_3750"
    INDEX 01 00:59:45
  TRACK 24 AUDIO
    TITLE "0:"
    INDEX 01 01:06:14
  TRACK 25 AUDIO
    TITLE "21:cjc123_3751"
    INDEX 01 01:06:49
  TRACK 26 AUDIO
    TITLE "0:"
    INDEX 01 01:12:23
  TRACK 27 AUDIO
    TITLE "19:cjc123_3752"
    INDEX 01 01:12:73
  TRACK 28 AUDIO
    TITLE "0:"
    INDEX 01 01:18:47
  TRACK 29 AUDIO
    TITLE "20:cjc123_3753"
    INDEX 01 01:19:09
  TRACK 30 AUDIO
    TITLE "0:"
    INDEX 01 01:24:71
  TRACK 31 AUDIO
    TITLE "21:cjc123_3754"
    INDEX 01 01:25:21
  TRACK 32 AUDIO
    TITLE "0:"
    INDEX 01 01:30:66
  TRACK 33 AUDIO
    TITLE "19:cjc123_3755"
    INDEX 01 01:31:41
  TRACK 34 AUDIO
    TITLE "0:"
    INDEX 01 01:36:41
  TRACK 35 AUDIO
    TITLE "20:cjc123_3756"
    INDEX 01 01:37:07
  TRACK 36 AUDIO
    TITLE "0:"
    INDEX 01 01:42:26
  TRACK 37 AUDIO
    TITLE "21:cjc123_3757"
    INDEX 01 01:42:55
  TRACK 38 AUDIO
    TITLE "0:"
    INDEX 01 01:47:50
  TRACK 39 AUDIO
    TITLE "19:cjc123_3758"
    INDEX 01 01:48:50
  TRACK 40 AUDIO
    TITLE "0:"
    INDEX 01 01:54:09
  TRACK 41 AUDIO
    TITLE "20:cjc123_3759"
    INDEX 01 01:54:41
  TRACK 42 AUDIO
    TITLE "0:"
    INDEX 01 01:59:50
  TRACK 43 AUDIO
    TITLE "21:cjc123_3760"
    INDEX 01 02:00:12
  TRACK 44 AUDIO
    TITLE "0:"
    INDEX 01 02:05:44
  TRACK 45 AUDIO
    TITLE "19:cjc123_3761"
    INDEX 01 02:06:54
  TRACK 46 AUDIO
    TITLE "0:"
    INDEX 01 02:12:05
  TRACK 47 AUDIO
    TITLE "20:cjc123_3762"
    INDEX 01 02:12:33
  TRACK 48 AUDIO
    TITLE "0:"
    INDEX 01 02:18:23
  TRACK 49 AUDIO
    TITLE "21:cjc123_3763"
    INDEX 01 02:18:65
  TRACK 50 AUDIO
    TITLE "0:"
    INDEX 01 02:24:20
  TRACK 51 AUDIO
    TITLE "19:cjc123_3764"
    INDEX 01 02:24:67
  TRACK 52 AUDIO
    TITLE "0:"
    INDEX 01 02:30:48
  TRACK 53 AUDIO
    TITLE "20:cjc123_3765"
    INDEX 01 02:31:03
  TRACK 54 AUDIO
    TITLE "0:"
    INDEX 01 02:36:35
  TRACK 55 AUDIO
    TITLE "21:cjc123_3766"
    INDEX 01 02:36:62
  TRACK 56 AUDIO
    TITLE "0:"
    INDEX 01 02:42:42
  TRACK 57 AUDIO
    TITLE "19:cjc123_3767"
    INDEX 01 02:43:15
  TRACK 58 AUDIO
    TITLE "0:"
    INDEX 01 02:48:30
  TRACK 59 AUDIO
    TITLE "20:cjc123_3768"
    INDEX 01 02:48:73
  TRACK 60 AUDIO
    TITLE "0:"
    INDEX 01 02:53:12
  TRACK 61 AUDIO
    TITLE "21:cjc123_3769"
    INDEX 01 02:53:39
  TRACK 62 AUDIO
    TITLE "0:"
    INDEX 01 02:58:54
  TRACK 63 AUDIO
    TITLE "19:cjc123_3770"
    INDEX 01 02:59:32
  TRACK 64 AUDIO
    TITLE "0:"
    INDEX 01 03:05:41
  TRACK 65 AUDIO
    TITLE "20:cjc123_3771"
    INDEX 01 03:05:68
  TRACK 66 AUDIO
    TITLE "0:"
    INDEX 01 03:12:33
  TRACK 67 AUDIO
    TITLE "21:cjc123_3772"
    INDEX 01 03:12:58
  TRACK 68 AUDIO
    TITLE "0:"
    INDEX 01 03:18:65
  TRACK 69 AUDIO
    TITLE "19:cjc123_3773"
    INDEX 01 03:19:37
  TRACK 70 AUDIO
    TITLE "0:"
    INDEX 01 03:24:07
  TRACK 71 AUDIO
    TITLE "20:cjc123_3774"
    INDEX 01 03:24:36
  TRACK 72 AUDIO
    TITLE "0:"
    INDEX 01 03:27:72
  TRACK 73 AUDIO
    TITLE "21:cjc123_3775"
    INDEX 01 03:28:24
  TRACK 74 AUDIO
    TITLE "0:"
    INDEX 01 03:32:65
  TRACK 75 AUDIO
    TITLE "19:cjc123_3776"
    INDEX 01 03:33:43
  TRACK 76 AUDIO
    TITLE "0:"
    INDEX 01 03:39:38
  TRACK 77 AUDIO
    TITLE "20:cjc123_3777"
    INDEX 01 03:39:67
  TRACK 78 AUDIO
    TITLE "0:"
    INDEX 01 03:45:38
  TRACK 79 AUDIO
    TITLE "21:cjc123_3778"
    INDEX 01 03:45:68
  TRACK 80 AUDIO
    TITLE "0:"
    INDEX 01 03:51:62
  TRACK 81 AUDIO
    TITLE "19:cjc123_3779"
    INDEX 01 03:52:38
  TRACK 82 AUDIO
    TITLE "0:"
    INDEX 01 03:58:02
  TRACK 83 AUDIO
    TITLE "20:cjc123_3780"
    INDEX 01 03:58:45
  TRACK 84 AUDIO
    TITLE "0:"
    INDEX 01 04:04:34
  TRACK 85 AUDIO
    TITLE "21:cjc123_3781"
    INDEX 01 04:04:61
  TRACK 86 AUDIO
    TITLE "0:"
    INDEX 01 04:10:26
  TRACK 87 AUDIO
    TITLE "19:cjc123_3782"
    INDEX 01 04:11:10
  TRACK 88 AUDIO
    TITLE "0:"
    INDEX 01 04:15:20
  TRACK 89 AUDIO
    TITLE "20:cjc123_3783"
    INDEX 01 04:15:55
  TRACK 90 AUDIO
    TITLE "0:"
    INDEX 01 04:20:11
  TRACK 91 AUDIO
    TITLE "21:cjc123_3784"
    INDEX 01 04:20:42
  TRACK 92 AUDIO
    TITLE "0:"
    INDEX 01 04:24:50
